<svg width="19" height="20" viewBox="0 0 13 12" fill="none" xmlns="http://www.w3.org/2000/svg">
<path d="M1.00019 10.4999C0.724051 10.4999 0.500194 10.7237 0.500194 10.9999C0.500194 11.276 0.724051 11.4999 1.00019 11.4999V10.4999ZM5.00019 7.99988L5.50019 7.99986L5.00019 7.99988ZM1.00024 7.5L0.543341 7.70309L0.798224 8.2765L1.30023 7.9L1.00024 7.5ZM5.08232 2.49326C5.35471 2.44787 5.53872 2.19025 5.49332 1.91787C5.44793 1.64548 5.19032 1.46147 4.91793 1.50686L5.08232 2.49326ZM1.00019 11.4999C2.53356 11.4999 3.67686 11.2489 4.43756 10.6403C5.22787 10.0081 5.50022 9.07971 5.50019 7.99986L4.50019 7.99989C4.50021 8.92005 4.27256 9.49169 3.81286 9.85944C3.32355 10.2509 2.46683 10.4999 1.00019 10.4999V11.4999ZM5.50019 7.99986C5.50018 7.21439 5.37305 6.58607 5.06258 6.15365C4.72049 5.6772 4.22007 5.52159 3.70865 5.56423C3.22881 5.60423 2.71757 5.81608 2.22801 6.08535C1.72971 6.35941 1.20843 6.71886 0.700241 7.1L1.30023 7.9C1.79204 7.53116 2.27075 7.20312 2.70993 6.96156C3.15786 6.71519 3.52159 6.58329 3.79173 6.56077C4.03029 6.54088 4.15486 6.604 4.25027 6.73688C4.37729 6.9138 4.50018 7.28543 4.50019 7.99989L5.50019 7.99986ZM1.00024 7.5C1.45713 7.29691 1.45724 7.29716 1.45735 7.29739C1.45737 7.29745 1.45747 7.29766 1.45752 7.29777C1.45761 7.298 1.45768 7.29815 1.45772 7.29824C1.4578 7.29842 1.45776 7.29834 1.45762 7.298C1.45732 7.29731 1.45658 7.29559 1.45543 7.29286C1.45313 7.2874 1.4492 7.27793 1.44394 7.26468C1.4334 7.23816 1.41759 7.19667 1.39884 7.14212C1.36124 7.03275 1.31236 6.87252 1.27034 6.67646C1.18551 6.28066 1.13309 5.75977 1.24041 5.22305C1.34592 4.69538 1.60696 4.14284 2.16922 3.66091C2.73749 3.17382 3.64419 2.73293 5.08232 2.49326L4.91793 1.50686C3.35598 1.76717 2.26265 2.26375 1.51843 2.90165C0.768191 3.5447 0.404263 4.30464 0.259824 5.02697C0.117198 5.74023 0.189838 6.40684 0.29255 6.88604C0.344301 7.12748 0.404822 7.32662 0.453171 7.46725C0.477394 7.53771 0.498699 7.59387 0.514539 7.63376C0.522463 7.65371 0.529034 7.66963 0.533936 7.68126C0.536387 7.68708 0.538423 7.69182 0.540003 7.69547C0.540793 7.6973 0.54147 7.69885 0.542028 7.70012C0.542307 7.70075 0.542556 7.70132 0.542775 7.70181C0.542885 7.70206 0.543026 7.70238 0.543081 7.70251C0.543215 7.70281 0.543341 7.70309 1.00024 7.5Z" fill="url(#paint0_linear_15_5)"/>
<path d="M5.1336 10.6598C4.9457 10.8621 4.95742 11.1785 5.15977 11.3664C5.36213 11.5543 5.6785 11.5426 5.8664 11.3402L5.1336 10.6598ZM12.3664 4.34023C12.5543 4.13787 12.5426 3.8215 12.3402 3.6336C12.1379 3.4457 11.8215 3.45742 11.6336 3.65977L12.3664 4.34023ZM10.5285 11.1664C10.6204 11.4268 10.906 11.5634 11.1664 11.4715C11.4268 11.3796 11.5634 11.094 11.4715 10.8336L10.5285 11.1664ZM8 2.5L8.4715 2.33359L8.29808 1.84225L7.8143 2.03576L8 2.5ZM5.5 3.5L5.30769 3.03846C5.05408 3.14413 4.93324 3.43464 5.0371 3.68901C5.14096 3.94337 5.4306 4.06628 5.6857 3.96424L5.5 3.5ZM11.6923 1.46154C11.9472 1.35533 12.0677 1.06259 11.9615 0.807692C11.8553 0.552792 11.5626 0.432253 11.3077 0.538462L11.6923 1.46154ZM5.8664 11.3402L12.3664 4.34023L11.6336 3.65977L5.1336 10.6598L5.8664 11.3402ZM11.4715 10.8336L8.4715 2.33359L7.5285 2.66641L10.5285 11.1664L11.4715 10.8336ZM7.8143 2.03576L5.3143 3.03576L5.6857 3.96424L8.1857 2.96424L7.8143 2.03576ZM5.69231 3.96154L11.6923 1.46154L11.3077 0.538462L5.30769 3.03846L5.69231 3.96154Z" fill="url(#paint1_linear_15_5)"/>
<defs>
<linearGradient id="paint0_linear_15_5" x1="2.84018" y1="2.00006" x2="2.84018" y2="10.9999" gradientUnits="userSpaceOnUse">
<stop stop-color="#ACE032"/>
<stop offset="1" stop-color="#5E7A1B"/>
</linearGradient>
<linearGradient id="paint1_linear_15_5" x1="8.75" y1="1" x2="8.75" y2="11" gradientUnits="userSpaceOnUse">
<stop stop-color="#9CCD2A"/>
<stop offset="1" stop-color="#4E6715"/>
</linearGradient>
</defs>
</svg>
